ffmpeg started on 2025-06-03 at 19:35:27
Report written to "D:\Convert\FFMetrics\reports\psnr_report-6.txt"
Log level: 32
Command line:
ffmpeg -hide_banner -nostdin -i "G:\\\xc0\xed\xe8\xec\xe5\\\xce\xed\xe3\xee\xe8\xed\xe3\xe8\\!_36_\xce\xf1\xe5\xed\xfc_2024\\DreamCast\\\xc1\xe0\xf8\xed\xff \xc1\xee\xe3\xe0\\\xd2\xc2-2\\[DC] Kami no Tou - Ouji no Kikan - 08_Telegram_HEVC.mkv" -i "G:\\\xc0\xed\xe8\xec\xe5\\\xce\xed\xe3\xee\xe8\xed\xe3\xe8\\!_36_\xce\xf1\xe5\xed\xfc_2024\\DreamCast\\\xc1\xe0\xf8\xed\xff \xc1\xee\xe3\xe0\\\xd2\xc2-2\\[DC] Kami no Tou - Ouji no Kikan - 08_Telegram.mp4" -lavfi "[0:v]settb=AVTB,setpts=PTS-STARTPTS,format=pix_fmts=yuv420p10,fps=24000/1001,scale=1920:1080:flags=bicubic[main];[1:v]settb=AVTB,setpts=PTS-STARTPTS,format=pix_fmts=yuv420p,fps=24000/1001,scale=1920:1080:flags=bicubic[ref];[main][ref]psnr=eof_action=endall:stats_file='D\\:/Convert/FFMetrics/logs/psnr_logfile-6.txt'" -f null -
Input #0, matroska,webm, from 'G:\Аниме\Онгоинги\!_36_Осень_2024\DreamCast\Башня Бога\ТВ-2\[DC] Kami no Tou - Ouji no Kikan - 08_Telegram_HEVC.mkv':
  Metadata:
    COMPATIBLE_BRANDS: isomiso2avc1mp41
    MAJOR_BRAND     : isom
    MINOR_VERSION   : 512
    ENCODER         : Lavf61.7.100
  Duration: 00:23:47.93, start: -0.021000, bitrate: 1553 kb/s
  Stream #0:0: Video: hevc (Main 10), yuv420p10le(tv, bt709, progressive), 1920x1080 [SAR 1:1 DAR 16:9], 23.98 fps, 23.98 tbr, 1k tbn (default)
      Metadata:
        HANDLER_NAME    : VideoHandler
        VENDOR_ID       : [0][0][0][0]
        ENCODER         : Lavc61.19.100 libx265
        BPS             : 1355916
        DURATION        : 00:23:47.592708333
        NUMBER_OF_FRAMES: 34228
        NUMBER_OF_BYTES : 241961856
        _STATISTICS_WRITING_APP: mkvpropedit v66.0.0 ('Josie') 64-bit
        _STATISTICS_WRITING_DATE_UTC: 2025-05-29 17:01:27
        _STATISTICS_TAGS: BPS DURATION NUMBER_OF_FRAMES NUMBER_OF_BYTES
  Stream #0:1: Audio: aac (LC), 48000 Hz, stereo, fltp (default)
      Metadata:
        HANDLER_NAME    : SoundHandler
        VENDOR_ID       : [0][0][0][0]
        ENCODER         : Lavc61.19.100 aac
        BPS             : 193768
        DURATION        : 00:23:47.925000000
        NUMBER_OF_FRAMES: 66935
        NUMBER_OF_BYTES : 34585867
        _STATISTICS_WRITING_APP: mkvpropedit v66.0.0 ('Josie') 64-bit
        _STATISTICS_WRITING_DATE_UTC: 2025-05-29 17:01:27
        _STATISTICS_TAGS: BPS DURATION NUMBER_OF_FRAMES NUMBER_OF_BYTES
Input #1, mov,mp4,m4a,3gp,3g2,mj2, from 'G:\Аниме\Онгоинги\!_36_Осень_2024\DreamCast\Башня Бога\ТВ-2\[DC] Kami no Tou - Ouji no Kikan - 08_Telegram.mp4':
  Metadata:
    major_brand     : isom
    minor_version   : 512
    compatible_brands: isomiso2avc1mp41
    encoder         : Lavf60.16.100
  Duration: 00:23:47.89, start: 0.000000, bitrate: 3263 kb/s
  Stream #1:0[0x1](und): Video: h264 (High) (avc1 / 0x31637661), yuv420p(tv, bt709, progressive), 1920x1080 [SAR 1:1 DAR 16:9], 3116 kb/s, 23.98 fps, 23.98 tbr, 24k tbn (default)
      Metadata:
        handler_name    : VideoHandler
        vendor_id       : [0][0][0][0]
        encoder         : Lavc60.31.102 h264_qsv
  Stream #1:1[0x2](und): Audio: aac (HE-AACv2) (mp4a / 0x6134706D), 48000 Hz, stereo, fltp, 144 kb/s (default)
      Metadata:
        handler_name    : SoundHandler
        vendor_id       : [0][0][0][0]
Stream mapping:
  Stream #0:0 (hevc) -> settb:default
  Stream #1:0 (h264) -> settb:default
  psnr:default -> Stream #0:0 (wrapped_avframe)
  Stream #0:1 -> #0:1 (aac (native) -> pcm_s16le (native))
Output #0, null, to 'pipe:':
  Metadata:
    COMPATIBLE_BRANDS: isomiso2avc1mp41
    MAJOR_BRAND     : isom
    MINOR_VERSION   : 512
    encoder         : Lavf61.7.100
  Stream #0:0: Video: wrapped_avframe, yuv420p10le(tv, bt709, progressive), 1920x1080 [SAR 1:1 DAR 16:9], q=2-31, 200 kb/s, 23.98 fps, 23.98 tbn
      Metadata:
        encoder         : Lavc61.19.100 wrapped_avframe
  Stream #0:1: Audio: pcm_s16le, 48000 Hz, stereo, s16, 1536 kb/s (default)
      Metadata:
        HANDLER_NAME    : SoundHandler
        VENDOR_ID       : [0][0][0][0]
        _STATISTICS_TAGS: BPS DURATION NUMBER_OF_FRAMES NUMBER_OF_BYTES
        BPS             : 193768
        DURATION        : 00:23:47.925000000
        NUMBER_OF_FRAMES: 66935
        NUMBER_OF_BYTES : 34585867
        _STATISTICS_WRITING_APP: mkvpropedit v66.0.0 ('Josie') 64-bit
        _STATISTICS_WRITING_DATE_UTC: 2025-05-29 17:01:27
        encoder         : Lavc61.19.100 pcm_s16le
frame=  178 fps=0.0 q=-0.0 size=N/A time=00:00:07.42 bitrate=N/A speed=14.6x    frame=  452 fps=444 q=-0.0 size=N/A time=00:00:18.85 bitrate=N/A speed=18.5x    frame=  680 fps=441 q=-0.0 size=N/A time=00:00:28.36 bitrate=N/A speed=18.4x    frame=  928 fps=453 q=-0.0 size=N/A time=00:00:38.70 bitrate=N/A speed=18.9x    frame= 1179 fps=459 q=-0.0 size=N/A time=00:00:49.17 bitrate=N/A speed=19.1x    frame= 1439 fps=467 q=-0.0 size=N/A time=00:01:00.01 bitrate=N/A speed=19.5x    frame= 1661 fps=461 q=-0.0 size=N/A time=00:01:09.27 bitrate=N/A speed=19.2x    frame= 1910 fps=464 q=-0.0 size=N/A time=00:01:19.66 bitrate=N/A speed=19.4x    frame= 2188 fps=472 q=-0.0 size=N/A time=00:01:31.25 bitrate=N/A speed=19.7x    frame= 2460 fps=478 q=-0.0 size=N/A time=00:01:42.60 bitrate=N/A speed=19.9x    frame= 2654 fps=469 q=-0.0 size=N/A time=00:01:50.69 bitrate=N/A speed=19.5x    frame= 2935 fps=474 q=-0.0 size=N/A time=00:02:02.41 bitrate=N/A speed=19.8x    frame= 3174 fps=474 q=-0.0 size=N/A time=00:02:12.38 bitrate=N/A speed=19.8x    frame= 3434 fps=476 q=-0.0 size=N/A time=00:02:23.22 bitrate=N/A speed=19.8x    frame= 3697 fps=478 q=-0.0 size=N/A time=00:02:34.19 bitrate=N/A speed=  20x    frame= 3844 fps=466 q=-0.0 size=N/A time=00:02:40.32 bitrate=N/A speed=19.4x    frame= 3994 fps=456 q=-0.0 size=N/A time=00:02:46.58 bitrate=N/A speed=  19x    frame= 4125 fps=444 q=-0.0 size=N/A time=00:02:52.04 bitrate=N/A speed=18.5x    frame= 4272 fps=436 q=-0.0 size=N/A time=00:02:58.17 bitrate=N/A speed=18.2x    frame= 4416 fps=428 q=-0.0 size=N/A time=00:03:04.18 bitrate=N/A speed=17.9x    frame= 4542 fps=420 q=-0.0 size=N/A time=00:03:09.43 bitrate=N/A speed=17.5x    frame= 4684 fps=413 q=-0.0 size=N/A time=00:03:15.36 bitrate=N/A speed=17.2x    frame= 4850 fps=409 q=-0.0 size=N/A time=00:03:22.28 bitrate=N/A speed=17.1x    frame= 5022 fps=406 q=-0.0 size=N/A time=00:03:29.45 bitrate=N/A speed=16.9x    frame= 5164 fps=401 q=-0.0 size=N/A time=00:03:35.38 bitrate=N/A speed=16.7x    frame= 5278 fps=394 q=-0.0 size=N/A time=00:03:40.13 bitrate=N/A speed=16.4x    frame= 5383 fps=387 q=-0.0 size=N/A time=00:03:44.51 bitrate=N/A speed=16.1x    frame= 5491 fps=380 q=-0.0 size=N/A time=00:03:49.02 bitrate=N/A speed=15.9x    frame= 5615 fps=376 q=-0.0 size=N/A time=00:03:54.19 bitrate=N/A speed=15.7x    frame= 5756 fps=372 q=-0.0 size=N/A time=00:04:00.07 bitrate=N/A speed=15.5x    frame= 5944 fps=372 q=-0.0 size=N/A time=00:04:07.91 bitrate=N/A speed=15.5x    frame= 6178 fps=374 q=-0.0 size=N/A time=00:04:17.67 bitrate=N/A speed=15.6x    frame= 6409 fps=377 q=-0.0 size=N/A time=00:04:27.30 bitrate=N/A speed=15.7x    frame= 6699 fps=382 q=-0.0 size=N/A time=00:04:39.40 bitrate=N/A speed=15.9x    frame= 6977 fps=387 q=-0.0 size=N/A time=00:04:50.99 bitrate=N/A speed=16.1x    frame= 7237 fps=390 q=-0.0 size=N/A time=00:05:01.84 bitrate=N/A speed=16.3x    frame= 7424 fps=389 q=-0.0 size=N/A time=00:05:09.64 bitrate=N/A speed=16.2x    frame= 7578 fps=387 q=-0.0 size=N/A time=00:05:16.06 bitrate=N/A speed=16.1x    frame= 7800 fps=388 q=-0.0 size=N/A time=00:05:25.32 bitrate=N/A speed=16.2x    frame= 8062 fps=391 q=-0.0 size=N/A time=00:05:36.25 bitrate=N/A speed=16.3x    frame= 8280 fps=392 q=-0.0 size=N/A time=00:05:45.34 bitrate=N/A speed=16.3x    frame= 8505 fps=393 q=-0.0 size=N/A time=00:05:54.72 bitrate=N/A speed=16.4x    frame= 8725 fps=394 q=-0.0 size=N/A time=00:06:03.90 bitrate=N/A speed=16.4x    frame= 9010 fps=397 q=-0.0 size=N/A time=00:06:15.79 bitrate=N/A speed=16.6x    frame= 9206 fps=397 q=-0.0 size=N/A time=00:06:23.96 bitrate=N/A speed=16.6x    frame= 9478 fps=400 q=-0.0 size=N/A time=00:06:35.31 bitrate=N/A speed=16.7x    frame= 9731 fps=402 q=-0.0 size=N/A time=00:06:45.86 bitrate=N/A speed=16.8x    frame= 9983 fps=403 q=-0.0 size=N/A time=00:06:56.37 bitrate=N/A speed=16.8x    frame=10240 fps=405 q=-0.0 size=N/A time=00:07:07.09 bitrate=N/A speed=16.9x    frame=10495 fps=407 q=-0.0 size=N/A time=00:07:17.72 bitrate=N/A speed=  17x    frame=10761 fps=409 q=-0.0 size=N/A time=00:07:28.82 bitrate=N/A speed=17.1x    frame=11041 fps=412 q=-0.0 size=N/A time=00:07:40.50 bitrate=N/A speed=17.2x    frame=11322 fps=414 q=-0.0 size=N/A time=00:07:52.22 bitrate=N/A speed=17.3x    frame=11608 fps=417 q=-0.0 size=N/A time=00:08:04.15 bitrate=N/A speed=17.4x    frame=11829 fps=417 q=-0.0 size=N/A time=00:08:13.36 bitrate=N/A speed=17.4x    frame=12111 fps=419 q=-0.0 size=N/A time=00:08:25.17 bitrate=N/A speed=17.5x    frame=12395 fps=422 q=-0.0 size=N/A time=00:08:36.97 bitrate=N/A speed=17.6x    frame=12637 fps=423 q=-0.0 size=N/A time=00:08:47.06 bitrate=N/A speed=17.6x    frame=12849 fps=423 q=-0.0 size=N/A time=00:08:55.91 bitrate=N/A speed=17.6x    frame=13053 fps=422 q=-0.0 size=N/A time=00:09:04.41 bitrate=N/A speed=17.6x    frame=13250 fps=421 q=-0.0 size=N/A time=00:09:12.63 bitrate=N/A speed=17.6x    frame=13538 fps=424 q=-0.0 size=N/A time=00:09:24.64 bitrate=N/A speed=17.7x    frame=13798 fps=425 q=-0.0 size=N/A time=00:09:35.49 bitrate=N/A speed=17.7x    frame=14084 fps=427 q=-0.0 size=N/A time=00:09:47.42 bitrate=N/A speed=17.8x    frame=14378 fps=429 q=-0.0 size=N/A time=00:09:59.68 bitrate=N/A speed=17.9x    frame=14593 fps=429 q=-0.0 size=N/A time=00:10:08.64 bitrate=N/A speed=17.9x    frame=14798 fps=428 q=-0.0 size=N/A time=00:10:17.19 bitrate=N/A speed=17.9x    frame=15065 fps=430 q=-0.0 size=N/A time=00:10:28.33 bitrate=N/A speed=17.9x    frame=15346 fps=431 q=-0.0 size=N/A time=00:10:40.05 bitrate=N/A speed=  18x    frame=15631 fps=433 q=-0.0 size=N/A time=00:10:51.94 bitrate=N/A speed=  18x    frame=15920 fps=435 q=-0.0 size=N/A time=00:11:03.99 bitrate=N/A speed=18.1x    frame=16187 fps=436 q=-0.0 size=N/A time=00:11:15.13 bitrate=N/A speed=18.2x    frame=16468 fps=437 q=-0.0 size=N/A time=00:11:26.85 bitrate=N/A speed=18.2x    frame=16762 fps=439 q=-0.0 size=N/A time=00:11:39.11 bitrate=N/A speed=18.3x    frame=17039 fps=440 q=-0.0 size=N/A time=00:11:50.66 bitrate=N/A speed=18.4x    frame=17333 fps=442 q=-0.0 size=N/A time=00:12:02.93 bitrate=N/A speed=18.4x    frame=17612 fps=443 q=-0.0 size=N/A time=00:12:14.56 bitrate=N/A speed=18.5x    frame=17888 fps=444 q=-0.0 size=N/A time=00:12:26.07 bitrate=N/A speed=18.5x    frame=18175 fps=446 q=-0.0 size=N/A time=00:12:38.04 bitrate=N/A speed=18.6x    frame=18466 fps=447 q=-0.0 size=N/A time=00:12:50.18 bitrate=N/A speed=18.7x    frame=18744 fps=449 q=-0.0 size=N/A time=00:13:01.78 bitrate=N/A speed=18.7x    frame=18978 fps=449 q=-0.0 size=N/A time=00:13:11.54 bitrate=N/A speed=18.7x    frame=19151 fps=447 q=-0.0 size=N/A time=00:13:18.75 bitrate=N/A speed=18.6x    frame=19414 fps=448 q=-0.0 size=N/A time=00:13:29.72 bitrate=N/A speed=18.7x    frame=19658 fps=448 q=-0.0 size=N/A time=00:13:39.90 bitrate=N/A speed=18.7x    frame=19884 fps=448 q=-0.0 size=N/A time=00:13:49.32 bitrate=N/A speed=18.7x    frame=20166 fps=449 q=-0.0 size=N/A time=00:14:01.09 bitrate=N/A speed=18.7x    frame=20329 fps=448 q=-0.0 size=N/A time=00:14:07.88 bitrate=N/A speed=18.7x    frame=20481 fps=446 q=-0.0 size=N/A time=00:14:14.22 bitrate=N/A speed=18.6x    frame=20726 fps=446 q=-0.0 size=N/A time=00:14:24.44 bitrate=N/A speed=18.6x    frame=21000 fps=447 q=-0.0 size=N/A time=00:14:35.87 bitrate=N/A speed=18.7x    frame=21227 fps=447 q=-0.0 size=N/A time=00:14:45.34 bitrate=N/A speed=18.7x    frame=21484 fps=448 q=-0.0 size=N/A time=00:14:56.06 bitrate=N/A speed=18.7x    frame=21748 fps=448 q=-0.0 size=N/A time=00:15:07.07 bitrate=N/A speed=18.7x    frame=22023 fps=449 q=-0.0 size=N/A time=00:15:18.54 bitrate=N/A speed=18.7x    frame=22294 fps=450 q=-0.0 size=N/A time=00:15:29.84 bitrate=N/A speed=18.8x    frame=22572 fps=451 q=-0.0 size=N/A time=00:15:41.44 bitrate=N/A speed=18.8x    frame=22819 fps=451 q=-0.0 size=N/A time=00:15:51.74 bitrate=N/A speed=18.8x    frame=23062 fps=452 q=-0.0 size=N/A time=00:16:01.87 bitrate=N/A speed=18.8x    frame=23285 fps=451 q=-0.0 size=N/A time=00:16:11.17 bitrate=N/A speed=18.8x    frame=23492 fps=451 q=-0.0 size=N/A time=00:16:19.81 bitrate=N/A speed=18.8x    frame=23743 fps=451 q=-0.0 size=N/A time=00:16:30.28 bitrate=N/A speed=18.8x    frame=23929 fps=450 q=-0.0 size=N/A time=00:16:38.03 bitrate=N/A speed=18.8x    frame=24095 fps=449 q=-0.0 size=N/A time=00:16:44.96 bitrate=N/A speed=18.7x    frame=24352 fps=450 q=-0.0 size=N/A time=00:16:55.68 bitrate=N/A speed=18.8x    frame=24576 fps=449 q=-0.0 size=N/A time=00:17:05.02 bitrate=N/A speed=18.7x    frame=24754 fps=448 q=-0.0 size=N/A time=00:17:12.44 bitrate=N/A speed=18.7x    frame=24971 fps=448 q=-0.0 size=N/A time=00:17:21.49 bitrate=N/A speed=18.7x    frame=25238 fps=449 q=-0.0 size=N/A time=00:17:32.63 bitrate=N/A speed=18.7x    frame=25467 fps=449 q=-0.0 size=N/A time=00:17:42.18 bitrate=N/A speed=18.7x    frame=25750 fps=450 q=-0.0 size=N/A time=00:17:53.98 bitrate=N/A speed=18.8x    frame=25932 fps=449 q=-0.0 size=N/A time=00:18:01.58 bitrate=N/A speed=18.7x    frame=26165 fps=449 q=-0.0 size=N/A time=00:18:11.29 bitrate=N/A speed=18.7x    frame=26435 fps=450 q=-0.0 size=N/A time=00:18:22.55 bitrate=N/A speed=18.8x    frame=26687 fps=450 q=-0.0 size=N/A time=00:18:33.07 bitrate=N/A speed=18.8x    frame=26965 fps=451 q=-0.0 size=N/A time=00:18:44.66 bitrate=N/A speed=18.8x    frame=27218 fps=451 q=-0.0 size=N/A time=00:18:55.21 bitrate=N/A speed=18.8x    frame=27493 fps=452 q=-0.0 size=N/A time=00:19:06.68 bitrate=N/A speed=18.8x    frame=27756 fps=452 q=-0.0 size=N/A time=00:19:17.65 bitrate=N/A speed=18.9x    frame=28032 fps=453 q=-0.0 size=N/A time=00:19:29.16 bitrate=N/A speed=18.9x    frame=28293 fps=453 q=-0.0 size=N/A time=00:19:40.05 bitrate=N/A speed=18.9x    frame=28585 fps=454 q=-0.0 size=N/A time=00:19:52.23 bitrate=N/A speed=18.9x    frame=28834 fps=454 q=-0.0 size=N/A time=00:20:02.61 bitrate=N/A speed=  19x    frame=29098 fps=455 q=-0.0 size=N/A time=00:20:13.62 bitrate=N/A speed=  19x    frame=29381 fps=456 q=-0.0 size=N/A time=00:20:25.43 bitrate=N/A speed=  19x    frame=29636 fps=456 q=-0.0 size=N/A time=00:20:36.06 bitrate=N/A speed=  19x    frame=29917 fps=457 q=-0.0 size=N/A time=00:20:47.78 bitrate=N/A speed=  19x    frame=30190 fps=457 q=-0.0 size=N/A time=00:20:59.17 bitrate=N/A speed=19.1x    frame=30469 fps=458 q=-0.0 size=N/A time=00:21:10.81 bitrate=N/A speed=19.1x    frame=30689 fps=458 q=-0.0 size=N/A time=00:21:19.98 bitrate=N/A speed=19.1x    frame=30946 fps=458 q=-0.0 size=N/A time=00:21:30.70 bitrate=N/A speed=19.1x    frame=31216 fps=458 q=-0.0 size=N/A time=00:21:41.96 bitrate=N/A speed=19.1x    frame=31462 fps=459 q=-0.0 size=N/A time=00:21:52.22 bitrate=N/A speed=19.1x    frame=31698 fps=458 q=-0.0 size=N/A time=00:22:02.07 bitrate=N/A speed=19.1x    frame=31893 fps=458 q=-0.0 size=N/A time=00:22:10.20 bitrate=N/A speed=19.1x    frame=32151 fps=458 q=-0.0 size=N/A time=00:22:20.96 bitrate=N/A speed=19.1x    frame=32378 fps=458 q=-0.0 size=N/A time=00:22:30.43 bitrate=N/A speed=19.1x    frame=32587 fps=458 q=-0.0 size=N/A time=00:22:39.14 bitrate=N/A speed=19.1x    frame=32751 fps=457 q=-0.0 size=N/A time=00:22:45.98 bitrate=N/A speed=  19x    frame=32944 fps=456 q=-0.0 size=N/A time=00:22:54.03 bitrate=N/A speed=  19x    frame=33151 fps=456 q=-0.0 size=N/A time=00:23:02.67 bitrate=N/A speed=  19x    frame=33319 fps=455 q=-0.0 size=N/A time=00:23:09.67 bitrate=N/A speed=  19x    frame=33548 fps=455 q=-0.0 size=N/A time=00:23:19.23 bitrate=N/A speed=  19x    frame=33800 fps=455 q=-0.0 size=N/A time=00:23:29.74 bitrate=N/A speed=  19x    frame=34042 fps=455 q=-0.0 size=N/A time=00:23:39.83 bitrate=N/A speed=  19x    [Parsed_psnr_10 @ 000002cb766f0880] PSNR y:48.186059 u:50.025649 v:50.080553 average:48.723853 min:36.003856 max:inf
[out#0/null @ 000002cb767055c0] video:14707KiB audio:267740KiB subtitle:0KiB other streams:0KiB global headers:0KiB muxing overhead: unknown
frame=34228 fps=455 q=-0.0 Lsize=N/A time=00:23:47.59 bitrate=N/A speed=  19x    
